<svg xmlns="http://www.w3.org/2000/svg" viewBox="0 0 64 64" role="img" aria-label="开心小朋友抓住小龙虾图标">
  <defs>
    <linearGradient id="bg" x1="0" x2="1" y1="0" y2="1">
      <stop offset="0%" stop-color="#fff4e3" />
      <stop offset="100%" stop-color="#ffd5b1" />
    </linearGradient>
  </defs>
  <rect width="64" height="64" rx="16" fill="url(#bg)" />
  <circle cx="24" cy="20" r="8" fill="#f2c29b" />
  <path d="M16 50c0-9 6-16 14-16s14 7 14 16" fill="#2c7a5a" />
  <path d="M18 35c3 3 6 4 10 4s7-1 10-4" fill="none" stroke="#1f2933" stroke-linecap="round" stroke-width="2.2" />
  <circle cx="21" cy="19" r="1.3" fill="#1f2933" />
  <circle cx="27" cy="19" r="1.3" fill="#1f2933" />
  <path d="M21 23c1.7 1.5 4.3 1.5 6 0" fill="none" stroke="#d06a5f" stroke-linecap="round" stroke-width="1.8" />
  <path d="M34 17c7 0 13 5.8 13 13s-6 13-13 13c-4.5 0-8.5-2.4-10.8-5.9" fill="#e53935" />
  <circle cx="36" cy="26" r="1.2" fill="#fff4e3" />
  <path d="M46 23l5-4" fill="none" stroke="#e53935" stroke-linecap="round" stroke-width="2.2" />
  <path d="M44 20l2-5" fill="none" stroke="#e53935" stroke-linecap="round" stroke-width="2.2" />
  <path d="M45 31c5-3 8-1 8 2-3 3-7 4-11 3" fill="#e53935" />
  <path d="M42 38c4 3 8 3 11 0-1-4-5-5-9-4" fill="#e53935" />
  <path d="M31 29c3 1 4 4 3 7" fill="none" stroke="#fff4e3" stroke-linecap="round" stroke-width="1.8" />
</svg>
